<svg id="Layer_1" data-name="Layer 1" xmlns="http://www.w3.org/2000/svg" viewBox="0 0 669.22 231.76"><defs><style>.cls-1{fill:#373e4e;}.cls-2{fill:#fc6f15;}.cls-3{fill:#fd9b16;}.cls-4{fill:#fbb040;}.cls-5{fill:#fb480d;}.cls-6{fill:#f6561b;}</style></defs><path class="cls-1" d="M185.38,230.59H50.83A47.43,47.43,0,0,1,3.4,183.16V48.61A47.42,47.42,0,0,1,50.83,1.18H185.38a47.43,47.43,0,0,1,47.43,47.43V183.16A47.44,47.44,0,0,1,185.38,230.59Z"/><path class="cls-2" d="M54.94,67.62q5.33,4.91,9.56,5.56c3.62.55,6.63-1.92,8.8-4.68l9-6.45c2.75-1.12,6.91-3.36,7.48-6.51.8-4.36-1.35-10.12-3.08-14.22a17.47,17.47,0,0,0-8.06-8.93,17.21,17.21,0,0,0-7-3,30.88,30.88,0,0,0-10.82-2c-12-.07-15,10.55-14.74,20.56Q45.15,60.67,54.94,67.62Z"/><path class="cls-2" d="M124,53.45l10.22,2a.45.45,0,0,1,.25.32,55.62,55.62,0,0,1,17.3,9.44c1.43,1.13,2.71,1.38,3.84-.23a.89.89,0,0,1,1.58.24c3.87,12,14.67,20,26.77,21.86l4.2.56a.71.71,0,0,0,.8-.8c-.33-2.38-.9-4-1.74-4.72a80.78,80.78,0,0,0-15-26.28,7,7,0,0,0-1.75-1.46,5.73,5.73,0,0,1-1.67-1.51,12.91,12.91,0,0,0-2.35-2.45,35.8,35.8,0,0,0-21-8.25,37.63,37.63,0,0,0-12,1.77,15.44,15.44,0,0,0-5.1,2.44,7.25,7.25,0,0,1-1.65.87,5.11,5.11,0,0,0-2.28,1.51,1.26,1.26,0,0,1-.53.39,2.33,2.33,0,0,0-1.48,1.66A2.14,2.14,0,0,0,124,53.45Z"/><path class="cls-2" d="M196.94,114.27c-5.26-8.09-12.32-10.25-21.57-11.26a2.2,2.2,0,0,0-2.39,2.65l1.41,6.65.9,11.43q-.73,3.17.81,4.67a1.28,1.28,0,0,0,.87.37c2.6.05,6.22-1,7.6,2.09a33.64,33.64,0,0,0,5.3,8.66,18.9,18.9,0,0,0,7.93,5.26.94.94,0,0,0,1.34-.67l1.12-3.42A29.17,29.17,0,0,0,196.94,114.27Z"/><path class="cls-2" d="M53.15,140c-.83-.58-.74-1,.26-1.1,2.11-.3,2.56-1.87,1.85-3.79a75.09,75.09,0,0,1-4-16.69,7.38,7.38,0,0,0,0-3.68q.36-4.67,1.18-9.36a2.2,2.2,0,0,0-3.43-2.25,33.68,33.68,0,0,0-14.69,24.74c-1.16,11.62,4,22.59,11.33,31.87A73.38,73.38,0,0,0,61,174.49q.63,1.37,3.54,2.82a.67.67,0,0,0,1-.53l.36-3.56a20.37,20.37,0,0,0,.71-8.79C65.17,154.21,61.59,146,53.15,140Z"/><path class="cls-2" d="M108.1,187.06a4.22,4.22,0,0,1-1.31-5.27c.77-1.7,2.47-4.51-.77-5.21L92.83,171c-2-1-3.64-1.92-5-2.72a2.85,2.85,0,0,0-3.71.28,1.28,1.28,0,0,0-.42.82l-.47,3.6a28.67,28.67,0,0,0-.69,10.23,6,6,0,0,0,2,4.39,24,24,0,0,0,4.57,7.1,27.16,27.16,0,0,0,19.15,9.51l7.69.09c1.25-.44,1.45-2.1.58-4.95A23.52,23.52,0,0,0,108.1,187.06Z"/><path class="cls-2" d="M121.09,170.56a6.59,6.59,0,0,1-6.91-2.86L65.27,92.41a6.59,6.59,0,1,1,11-7.18l48.91,75.29a6.59,6.59,0,0,1-4.14,10Z"/><path class="cls-3" d="M152,182.07a6.58,6.58,0,0,1-6.91-2.85L79,77.67A6.59,6.59,0,0,1,90,70.49L156.12,172a6.59,6.59,0,0,1-1.94,9.12A6.46,6.46,0,0,1,152,182.07Z"/><path class="cls-2" d="M159.66,156a6.6,6.6,0,0,1-6.92-2.86l-55.2-85a6.59,6.59,0,0,1,11-7.18l55.2,85a6.6,6.6,0,0,1-4.13,10Z"/><path class="cls-6" d="M165.14,125.65a6.6,6.6,0,0,1-6.92-2.86L122.3,67.5a6.59,6.59,0,1,1,11-7.18l35.92,55.29a6.59,6.59,0,0,1-1.93,9.12A6.49,6.49,0,0,1,165.14,125.65Z"/><path class="cls-6" d="M93.21,164.73a6.59,6.59,0,0,1-6.92-2.85L56.39,116.4a6.59,6.59,0,0,1,11-7.18L97.35,154.7a6.6,6.6,0,0,1-1.94,9.12A6.46,6.46,0,0,1,93.21,164.73Z"/><path class="cls-1" d="M318.34,33.07c-1.38,0-2.06-.71-2.06-2.14V28.59c0-3-1.5-4.48-4.49-4.48H287a25.72,25.72,0,0,0-4.26.29,4.91,4.91,0,0,0-2.52,1.12A4.37,4.37,0,0,0,279,27.76a16.76,16.76,0,0,0-.32,3.66V59.48a17.29,17.29,0,0,0,.32,3.7,4.06,4.06,0,0,0,1.22,2.24,5.15,5.15,0,0,0,2.52,1.08,25.72,25.72,0,0,0,4.26.29h24.79c3,0,4.49-1.5,4.49-4.48V53.93H300.19a1.82,1.82,0,0,1-2.06-2V43.6c0-1.43.69-2.15,2.06-2.15h28.72c1.37,0,2,.72,2,2.15V64.35a27.42,27.42,0,0,1-.79,7.11,10.24,10.24,0,0,1-2.62,4.73,10.45,10.45,0,0,1-4.72,2.58,27.85,27.85,0,0,1-7.11.78H279.24q-8.06,0-11.88-3.75T263.52,64v-37q0-8.1,3.84-11.84t11.88-3.75h36.48a27.85,27.85,0,0,1,7.11.78,10.45,10.45,0,0,1,4.72,2.58,10.2,10.2,0,0,1,2.62,4.72,27.5,27.5,0,0,1,.79,7.12v4.38c0,1.43-.68,2.14-2,2.14Z"/><path class="cls-1" d="M356.31,77.51c0,1.36-.72,2-2.15,2H343.22a1.81,1.81,0,0,1-2.06-2V13.39a1.81,1.81,0,0,1,2.06-2h10.94c1.43,0,2.15.68,2.15,2Z"/><path class="cls-1" d="M415.62,79.55a3.83,3.83,0,0,1-1.78-.34,2.75,2.75,0,0,1-1.12-1.31L381.38,24v53.5a1.81,1.81,0,0,1-2.06,2h-9.91a1.81,1.81,0,0,1-2.06-2V13.39a1.81,1.81,0,0,1,2.06-2H388.3a3.48,3.48,0,0,1,1.78.39A3.18,3.18,0,0,1,391.2,13l31.34,54V13.39c0-1.36.71-2,2.15-2h9.91a1.81,1.81,0,0,1,2.06,2V77.51a1.81,1.81,0,0,1-2.06,2Z"/><path class="cls-1" d="M501.58,33.07c-1.38,0-2.06-.71-2.06-2.14V28.59c0-3-1.5-4.48-4.49-4.48H470.24a25.51,25.51,0,0,0-4.25.29,4.91,4.91,0,0,0-2.53,1.12,4.37,4.37,0,0,0-1.22,2.24,16.76,16.76,0,0,0-.32,3.66V59.48a17.29,17.29,0,0,0,.32,3.7,4.06,4.06,0,0,0,1.22,2.24A5.15,5.15,0,0,0,466,66.5a25.51,25.51,0,0,0,4.25.29H495c3,0,4.49-1.5,4.49-4.48V53.93H483.43a1.82,1.82,0,0,1-2.06-2V43.6c0-1.43.69-2.15,2.06-2.15h28.72c1.37,0,2.05.72,2.05,2.15V64.35a27.42,27.42,0,0,1-.79,7.11,10.24,10.24,0,0,1-2.62,4.73,10.45,10.45,0,0,1-4.72,2.58,27.85,27.85,0,0,1-7.11.78H462.48q-8.06,0-11.88-3.75T446.76,64v-37q0-8.1,3.84-11.84t11.88-3.75H499a27.85,27.85,0,0,1,7.11.78,10.45,10.45,0,0,1,4.72,2.58,10.2,10.2,0,0,1,2.62,4.72,27.5,27.5,0,0,1,.79,7.12v4.38c0,1.43-.68,2.14-2.05,2.14Z"/><path class="cls-1" d="M586,11.35a1.81,1.81,0,0,1,2.06,2v8.67A1.82,1.82,0,0,1,586,24.11h-46.4V38.92h39c1.43,0,2.15.68,2.15,2v8.38c0,1.36-.72,2-2.15,2h-39v15.4H586a1.81,1.81,0,0,1,2.06,2v8.68a1.81,1.81,0,0,1-2.06,2H526.46a1.81,1.81,0,0,1-2.06-2V13.39a1.81,1.81,0,0,1,2.06-2Z"/><path class="cls-1" d="M648.06,11.35q8,0,11.69,3.65c2.43,2.44,3.65,6.28,3.65,11.55V40q0,7.89-3.65,11.89t-11.69,4h-2.53l19.83,21.64a1.11,1.11,0,0,1,.38,1.31,1,1,0,0,1-1,.73H650.58A3.74,3.74,0,0,1,647.12,78L628.69,56.56H612.05v21q0,2-2.16,2H599a1.81,1.81,0,0,1-2.06-2V13.39a1.81,1.81,0,0,1,2.06-2Zm-36,32.44h28.52a21.62,21.62,0,0,0,3.93-.29,5,5,0,0,0,2.34-1,3.58,3.58,0,0,0,1.12-2,17,17,0,0,0,.28-3.46v-6a17,17,0,0,0-.28-3.46,3.62,3.62,0,0,0-1.12-2,5.07,5.07,0,0,0-2.34-1,21.62,21.62,0,0,0-3.93-.29H612.05Z"/><path class="cls-2" d="M268.69,209.82a1,1,0,0,1,1.12,1.11v.8a3.27,3.27,0,0,0,.75,2.37,3.13,3.13,0,0,0,2.37.78h15.5a13.55,13.55,0,0,0,2.25-.16,2.47,2.47,0,0,0,1.33-.62,2.41,2.41,0,0,0,.64-1.19,8.45,8.45,0,0,0,.18-1.92v-2.72a8.7,8.7,0,0,0-.18-1.94,2.24,2.24,0,0,0-.64-1.2,2.7,2.7,0,0,0-1.33-.61,10.65,10.65,0,0,0-2.25-.19H272.17c-2.8,0-4.85-.67-6.17-2s-2-3.38-2-6.15v-4.9c0-2.77.66-4.83,2-6.16s3.37-2,6.17-2h18.1a14.22,14.22,0,0,1,3.84.46,5.91,5.91,0,0,1,2.58,1.44,5.59,5.59,0,0,1,1.43,2.58,14.67,14.67,0,0,1,.44,3.83v1.12a1,1,0,0,1-1.13,1.12h-4a1,1,0,0,1-1.12-1.12v-.74a3.32,3.32,0,0,0-.74-2.37,3.25,3.25,0,0,0-2.43-.78H274.82a10.89,10.89,0,0,0-2.22.19,3.1,3.1,0,0,0-1.33.61,2.18,2.18,0,0,0-.66,1.18,8.29,8.29,0,0,0-.18,1.91v2.29a8.8,8.8,0,0,0,.18,1.95,2.2,2.2,0,0,0,.66,1.2,3,3,0,0,0,1.33.61,10.22,10.22,0,0,0,2.22.19h16.27c2.79,0,4.86.66,6.19,2s2,3.39,2,6.16v5.33q0,4.15-2,6.15c-1.33,1.33-3.4,2-6.19,2H271.86A13.83,13.83,0,0,1,268,220a6,6,0,0,1-2.58-1.43A5.91,5.91,0,0,1,264,216a14.22,14.22,0,0,1-.46-3.86v-1.18a1,1,0,0,1,1.13-1.11Z"/><path class="cls-2" d="M352.05,211.89c0,2.92-.69,5.06-2.07,6.45s-3.54,2.08-6.47,2.08H324.13c-2.9,0-5.06-.7-6.47-2.08s-2.12-3.53-2.12-6.45V191.65q0-8.52,8.59-8.53h19.38c2.93,0,5.09.71,6.47,2.11s2.07,3.54,2.07,6.42Zm-6.44-18.75a10,10,0,0,0-.21-2.26,2.43,2.43,0,0,0-.76-1.36,3.4,3.4,0,0,0-1.56-.67,15,15,0,0,0-2.59-.19h-13.4a15,15,0,0,0-2.58.19,3.53,3.53,0,0,0-1.58.67,2.36,2.36,0,0,0-.8,1.36,10.66,10.66,0,0,0-.2,2.26V210.4a10.66,10.66,0,0,0,.2,2.26,2.36,2.36,0,0,0,.8,1.36,3.43,3.43,0,0,0,1.58.67,15,15,0,0,0,2.58.19h13.4a15,15,0,0,0,2.59-.19,3.3,3.3,0,0,0,1.56-.67,2.43,2.43,0,0,0,.76-1.36,10,10,0,0,0,.21-2.26Z"/><path class="cls-2" d="M376.4,199.43h21.07a1,1,0,0,1,1.12,1.12v3.3a1,1,0,0,1-1.12,1.12H376.4V219.3a1,1,0,0,1-1.13,1.12h-4.19A1,1,0,0,1,370,219.3V184.24a1,1,0,0,1,1.08-1.12h30.43a1,1,0,0,1,1.12,1.12v3.31a1,1,0,0,1-1.12,1.11H376.4Z"/><path class="cls-2" d="M429,188.66H416a1,1,0,0,1-1.12-1.11v-3.31a1,1,0,0,1,1.12-1.12h32.53a1,1,0,0,1,1.12,1.12v3.31a1,1,0,0,1-1.12,1.11h-13V219.3a1,1,0,0,1-1.13,1.12h-4.19A1,1,0,0,1,429,219.3Z"/><path class="cls-2" d="M498.07,220.42a1.35,1.35,0,0,1-1.43-1.07l-7.83-28.77L481,219.35a1.37,1.37,0,0,1-1.44,1.07H472.8a1.39,1.39,0,0,1-1.48-1.07l-10.08-35.11c-.2-.74.05-1.12.77-1.12h4.5a1.35,1.35,0,0,1,1.43,1.07l8.49,30.74,8.34-30.74a1.31,1.31,0,0,1,1.43-1.07h5.47a1.4,1.4,0,0,1,1.49,1.07L501.44,215,510,184.19a1.35,1.35,0,0,1,1.49-1.07h4.19c.68,0,.92.38.72,1.12L506.3,219.35a1.39,1.39,0,0,1-1.48,1.07Z"/><path class="cls-2" d="M555,212.59H533.82l-3,6.81a2,2,0,0,1-.59.78,1.59,1.59,0,0,1-.94.24h-4.51a.67.67,0,0,1-.63-.32.81.81,0,0,1,.07-.8L540,184.14a2,2,0,0,1,.58-.78,1.71,1.71,0,0,1,.95-.24h6a1.68,1.68,0,0,1,.95.24,2,2,0,0,1,.59.78l15.75,35.16a.82.82,0,0,1,.08.8.67.67,0,0,1-.64.32h-4.76a1.57,1.57,0,0,1-1-.24,2.18,2.18,0,0,1-.56-.78ZM536.22,207h16.37l-8.19-18.75Z"/><path class="cls-2" d="M606.9,183.12c2.76,0,4.82.67,6.16,2s2,3.39,2,6.16v7.3q0,8.31-8.18,8.31h-2.51l11.77,12.41a.66.66,0,0,1,.2.74.56.56,0,0,1-.56.38h-5.57a2.92,2.92,0,0,1-1.08-.16,2,2,0,0,1-.71-.59L597.08,207.1H586.24v12.2a1,1,0,0,1-1.13,1.12h-4.19c-.72,0-1.07-.38-1.07-1.12V184.24c0-.74.35-1.12,1.07-1.12Zm-20.66,18.49h17.49a14.3,14.3,0,0,0,2.51-.18,3.12,3.12,0,0,0,1.5-.67,2.37,2.37,0,0,0,.72-1.33,10.94,10.94,0,0,0,.18-2.19V193a10.9,10.9,0,0,0-.18-2.18,2.37,2.37,0,0,0-.72-1.33,3.12,3.12,0,0,0-1.5-.67,14.17,14.17,0,0,0-2.51-.19H586.24Z"/><path class="cls-2" d="M664.75,183.12c.71,0,1.07.38,1.07,1.12v3.31a1,1,0,0,1-1.07,1.11H638.51v10.13h22.2a1,1,0,0,1,1.12,1.12v3.35c0,.71-.37,1.07-1.12,1.07h-22.2v10.55h26.24c.71,0,1.07.37,1.07,1.12v3.3c0,.74-.36,1.12-1.07,1.12H633.19c-.72,0-1.07-.38-1.07-1.12V184.24c0-.74.35-1.12,1.07-1.12Z"/><path class="cls-1" d="M287.74,111.74H265.5c-1.32,0-2-.62-2-1.87v-8c0-1.25.66-1.88,2-1.88h58.93c1.31,0,2,.63,2,1.88v8c0,1.25-.66,1.87-2,1.87H302.27v49c0,1.26-.69,1.88-2.06,1.88h-10.5c-1.31,0-2-.62-2-1.88Z"/><path class="cls-1" d="M346.22,144.22a15.2,15.2,0,0,0,.32,3.4,3.73,3.73,0,0,0,1.16,2.06,5,5,0,0,0,2.43,1,24.83,24.83,0,0,0,4.08.27h18.65a25,25,0,0,0,4.09-.27,5.29,5.29,0,0,0,2.46-1,3.62,3.62,0,0,0,1.22-2.06,15.89,15.89,0,0,0,.31-3.4V101.9c0-1.25.66-1.88,2-1.88h10.5c1.37,0,2.06.63,2.06,1.88v46.44q0,7.42-3.59,10.87t-11.39,3.44H346.76q-7.8,0-11.43-3.44t-3.64-10.87V101.9c0-1.25.66-1.88,2-1.88h10.49c1.38,0,2.06.63,2.06,1.88Z"/><path class="cls-1" d="M454.76,100q7.71,0,11.21,3.36t3.5,10.6v12.35q0,7.24-3.5,10.91t-11.21,3.67h-2.42l19,19.86a1,1,0,0,1,.36,1.21,1,1,0,0,1-1,.67H457.18a4.7,4.7,0,0,1-1.93-.31,4.46,4.46,0,0,1-1.39-1.12l-17.67-19.68h-16v19.23c0,1.26-.68,1.88-2.06,1.88H407.67c-1.32,0-2-.62-2-1.88V101.9c0-1.25.66-1.88,2-1.88Zm-34.54,29.8h27.36a21.17,21.17,0,0,0,3.77-.27,4.78,4.78,0,0,0,2.24-.94,3.31,3.31,0,0,0,1.08-1.88,15.1,15.1,0,0,0,.27-3.18V118a15.16,15.16,0,0,0-.27-3.18,3.27,3.27,0,0,0-1.08-1.88,4.78,4.78,0,0,0-2.24-.94,21.17,21.17,0,0,0-3.77-.27H420.22Z"/><path class="cls-1" d="M497.28,111.74H475c-1.31,0-2-.62-2-1.87v-8c0-1.25.66-1.88,2-1.88H534c1.32,0,2,.63,2,1.88v8c0,1.25-.66,1.87-2,1.87H511.81v49c0,1.26-.69,1.88-2.06,1.88h-10.5c-1.32,0-2-.62-2-1.88Z"/><path class="cls-1" d="M556.21,150.93h40.9c1.32,0,2,.63,2,1.88v8c0,1.26-.65,1.88-2,1.88H543.65c-1.32,0-2-.62-2-1.88V101.9c0-1.25.65-1.88,2-1.88h10.49c1.38,0,2.07.63,2.07,1.88Z"/><path class="cls-1" d="M663.85,100c1.31,0,2,.63,2,1.88v8c0,1.25-.66,1.87-2,1.87H619.36v13.6h37.4c1.37,0,2.06.63,2.06,1.88v7.7c0,1.25-.69,1.88-2.06,1.88h-37.4v14.13h44.49c1.31,0,2,.63,2,1.88v8c0,1.26-.66,1.88-2,1.88H606.8c-1.32,0-2-.62-2-1.88V101.9c0-1.25.65-1.88,2-1.88Z"/></svg>